<svg width="64" height="64" viewBox="0 0 64 64" fill="none" xmlns="http://www.w3.org/2000/svg">
<g clip-path="url(#clip0_361_2)">
<path d="M4.09381 53.3703C2.34768 55.0982 2.33292 57.9145 4.06084 59.6606C5.78875 61.4067 8.60502 61.4215 10.3511 59.6936L4.09381 53.3703ZM63.7209 5.04747C63.7338 2.59096 61.7528 0.589123 59.2963 0.576247L19.2651 0.366427C16.8086 0.353552 14.8068 2.33451 14.7939 4.79103C14.781 7.24754 16.762 9.24938 19.2185 9.26226L54.8018 9.44876L54.6153 45.0321C54.6024 47.4886 56.5834 49.4904 59.0399 49.5033C61.4964 49.5162 63.4982 47.5352 63.5111 45.0787L63.7209 5.04747ZM10.3511 59.6936L62.4017 8.1858L56.1444 1.86253L4.09381 53.3703L10.3511 59.6936Z" fill="black"/>
</g>
<defs>
<clipPath id="clip0_361_2">
<rect width="64" height="64" fill="white"/>
</clipPath>
</defs>
</svg>
